# xmcd
#
# Track frame offsets:
#	182
#	15040
#	31007
#	48020
#	62327
#	77132
#	92392
#	106892
#	121732
#	139230
#
# Disc length: 2070 seconds
#
# Revision: 3
# Processed by: cddbd v1.5.2PL0 Copyright (c) Steve Scherf et al.
# Submitted via: audiograbber 1.83.01
#
DISCID=6008140a
DTITLE=Andrea Jürgens - Komm in meine Träume
DYEAR=2000
DGENRE=Schlager
TTITLE0=Wenn der Himmel es will
TTITLE1=Ich hab Dich so geliebt
TTITLE2=In Deinen Armen
TTITLE3=Du bist bie liebe meines Lebens
TTITLE4=Lass mich heute nicht allein
TTITLE5=Wenn ein Mädchen liebt
TTITLE6=Ich bin verrückt nach liebe
TTITLE7=Komm in meine Träume heut Nacht
TTITLE8=Wenn Nachts die Seele weint
TTITLE9=Weit weit von hier
EXTD=BMG Ariola München GmbH
EXTT0=
EXTT1=
EXTT2=
EXTT3=
EXTT4=
EXTT5=
EXTT6=
EXTT7=
EXTT8=
EXTT9=
PLAYORDER=
